<?xml version="1.0" standalone="no"?>
<!DOCTYPE svg PUBLIC "-//W3C//DTD SVG 20010904//EN"
 "http://www.w3.org/TR/2001/REC-SVG-20010904/DTD/svg10.dtd">
<svg version="1.0" xmlns="http://www.w3.org/2000/svg"
 width="512.000000pt" height="512.000000pt" viewBox="0 0 512.000000 512.000000"
 preserveAspectRatio="xMidYMid meet">
<metadata>
Created by potrace 1.14, written by Peter Selinger 2001-2017
</metadata>
<g transform="translate(0.000000,512.000000) scale(0.100000,-0.100000)"
fill="#000000" stroke="none">
<path d="M3420 4420 c-19 -4 -51 -10 -70 -14 -124 -23 -286 -101 -391 -188
-25 -20 -49 -34 -53 -30 -4 4 -6 2 -4 -4 2 -6 -18 -33 -44 -59 -27 -26 -48
-50 -48 -54 0 -3 -10 -17 -23 -31 -13 -14 -36 -46 -51 -73 -15 -26 -31 -45
-35 -42 -4 2 -7 -6 -7 -18 1 -12 -4 -21 -10 -20 -8 1 -10 -6 -6 -19 3 -13 1
-19 -5 -15 -6 4 -10 1 -9 -6 2 -19 -37 -131 -48 -139 -8 -5 -7 -8 1 -8 8 0 7
-12 -3 -45 -7 -25 -10 -45 -7 -45 3 0 -1 -8 -8 -17 -8 -9 -9 -14 -4 -11 6 4 9
-10 6 -38 -1 -24 -7 -44 -11 -44 -5 0 -7 9 -5 20 2 11 0 18 -5 15 -12 -7 -6
-35 9 -44 9 -6 8 -12 -6 -26 -15 -16 -16 -18 -1 -13 16 7 16 6 9 -65 -1 -5 -6
-5 -13 -1 -7 4 -8 3 -4 -5 4 -6 12 -8 18 -5 7 5 9 0 6 -14 -4 -12 -1 -22 4
-22 6 0 5 -6 -2 -15 -10 -12 -10 -15 0 -15 8 0 11 -9 8 -25 -3 -13 -1 -22 3
-19 5 3 9 0 9 -7 0 -8 -23 -10 -87 -4 -154 12 -206 20 -460 75 -60 13 -316
100 -327 111 -6 5 -16 9 -24 9 -17 0 -280 129 -337 165 -22 14 -48 28 -57 32
-10 3 -18 8 -18 12 0 3 -20 17 -45 30 -25 13 -45 28 -45 32 0 5 -5 9 -11 9
-16 0 -104 71 -101 82 1 5 -2 7 -7 4 -21 -13 -409 346 -412 380 0 5 -13 19
-28 31 l-28 22 -26 -52 c-31 -63 -49 -105 -54 -132 -2 -10 -7 -22 -11 -25 -7
-5 -8 -9 -10 -61 -1 -16 -6 -28 -10 -25 -4 3 -8 -7 -8 -22 1 -17 -4 -26 -12
-24 -8 1 -11 -2 -7 -8 3 -6 10 -8 14 -6 4 3 5 -14 1 -37 -3 -23 -5 -55 -4 -72
1 -16 -3 -36 -8 -42 -7 -9 -7 -13 1 -13 6 0 11 -7 11 -16 0 -9 -5 -12 -12 -8
-7 5 -8 3 -2 -7 10 -16 13 -31 16 -81 2 -21 5 -38 8 -38 7 0 34 -120 31 -137
-1 -7 2 -13 7 -13 5 0 15 -19 22 -42 8 -24 18 -46 24 -49 14 -10 -2 -42 -16
-33 -9 5 -8 2 1 -9 9 -11 21 -15 34 -11 13 4 17 2 13 -5 -4 -6 -2 -11 4 -11 7
0 9 -7 6 -17 -4 -10 -4 -14 0 -11 6 7 44 -33 44 -47 0 -4 12 -16 26 -28 25
-19 26 -21 8 -34 -13 -10 -14 -13 -3 -13 12 0 12 -2 -1 -11 -13 -9 -13 -10 0
-6 8 2 14 10 12 16 -1 6 2 11 6 11 12 0 52 -48 52 -62 0 -6 3 -9 6 -5 11 10
38 -25 39 -49 0 -12 3 -25 7 -29 3 -4 5 1 4 12 -4 23 3 35 15 27 6 -4 6 -11
-2 -20 -7 -9 -8 -14 -1 -14 6 0 14 5 17 10 7 12 35 -5 35 -20 0 -13 -163 6
-168 20 -2 4 -11 6 -21 3 -10 -3 -22 0 -25 6 -4 5 -13 8 -21 4 -8 -3 -15 -1
-15 4 0 5 -8 9 -17 10 -10 1 -44 13 -76 27 -32 14 -60 26 -63 26 -3 0 -4 -27
-2 -60 2 -36 -1 -60 -7 -60 -5 0 -5 -4 1 -8 23 -15 20 -47 -6 -64 -14 -10 -20
-18 -13 -18 6 0 15 5 18 10 10 17 28 11 21 -7 -4 -9 -2 -19 3 -22 5 -4 11 -20
13 -36 2 -17 10 -41 17 -54 11 -19 11 -22 0 -15 -7 4 -4 -6 7 -22 11 -16 26
-42 33 -58 10 -25 10 -28 -2 -18 -11 9 -14 8 -14 -3 0 -8 2 -13 5 -10 9 9 40
-15 45 -35 3 -13 1 -18 -6 -13 -7 4 5 -10 26 -30 21 -21 35 -42 32 -47 -6 -10
15 -60 26 -60 5 0 6 -8 3 -17 -5 -15 -4 -15 5 -3 7 10 6 19 -3 30 -26 30 -28
44 -2 15 16 -17 25 -37 22 -48 -3 -14 -1 -16 8 -8 18 15 81 -51 72 -75 -5 -14
-4 -15 9 -4 15 12 22 0 8 -14 -12 -12 -10 -66 2 -57 5 5 21 7 35 6 14 -2 29
-4 33 -4 5 -1 5 -6 1 -13 -4 -7 -3 -8 4 -4 16 10 16 11 -14 31 -15 10 -23 12
-19 4 6 -9 3 -11 -9 -6 -10 4 -21 7 -26 7 -9 0 -8 19 3 37 5 8 14 5 31 -10 43
-39 60 -52 68 -50 4 2 5 -4 2 -12 -4 -8 -10 -12 -16 -9 -5 3 -4 -3 3 -14 10
-15 17 -18 25 -11 10 8 12 1 9 -33 -3 -29 -1 -38 5 -28 5 8 7 24 3 35 -5 18
-4 18 11 6 9 -8 19 -11 23 -7 3 3 1 6 -5 6 -6 0 -18 12 -26 28 -8 15 -15 21
-16 15 0 -7 -5 -13 -11 -13 -8 0 -7 5 2 16 12 14 14 14 26 -2 7 -10 13 -14 13
-10 0 4 13 -2 30 -14 17 -12 30 -18 30 -14 0 4 8 0 18 -9 10 -10 22 -14 25
-10 4 3 7 2 7 -3 0 -5 10 -10 22 -11 11 -1 25 -8 29 -15 5 -7 9 -9 9 -4 0 5 6
3 13 -3 8 -6 17 -8 20 -4 4 3 12 1 19 -4 7 -6 21 -9 31 -7 11 1 16 0 12 -4 -3
-3 -16 -7 -28 -9 -12 -1 -38 -5 -57 -10 -19 -4 -99 -8 -178 -7 -159 0 -149 6
-116 -75 8 -18 11 -38 7 -44 -3 -6 -1 -7 5 -3 8 5 12 0 12 -13 0 -10 5 -21 11
-23 6 -2 17 -18 25 -36 7 -18 9 -30 4 -27 -5 3 -12 0 -16 -6 -4 -7 -3 -10 2
-7 15 9 54 -10 54 -27 0 -8 5 -15 11 -15 5 0 7 -5 4 -10 -4 -7 -14 -6 -28 1
-21 10 -21 9 -3 -5 10 -9 23 -13 29 -9 5 3 27 -14 48 -37 38 -42 48 -57 30
-45 -5 3 -12 1 -15 -3 -3 -5 4 -9 16 -8 11 0 37 -14 57 -32 41 -38 118 -92
130 -92 5 0 11 -7 15 -15 3 -8 13 -15 21 -15 9 0 13 -5 10 -10 -5 -8 -12 -7
-23 2 -15 12 -16 11 -3 -4 9 -12 10 -18 2 -18 -6 0 -11 -5 -11 -11 0 -8 4 -8
12 -1 9 7 17 6 25 -3 6 -7 10 -15 7 -17 -2 -3 3 -5 11 -5 8 0 16 4 16 9 1 4 2
12 3 17 0 5 5 13 9 18 5 4 7 2 5 -6 -2 -7 3 -16 11 -19 9 -3 11 0 6 9 -4 8 0
6 11 -3 14 -14 16 -20 6 -30 -7 -7 -12 -16 -12 -22 0 -5 6 -1 14 10 8 10 18
16 22 12 4 -4 13 -3 20 3 10 9 15 7 20 -5 3 -9 10 -16 16 -16 5 0 7 4 4 9 -7
10 13 9 30 -1 14 -9 62 -20 98 -22 16 -1 31 -8 34 -16 3 -13 2 -13 -7 0 -7 10
-11 11 -11 3 0 -7 -5 -13 -11 -13 -5 0 -7 5 -3 12 4 7 3 8 -5 4 -6 -4 -9 -11
-6 -16 3 -5 -3 -11 -14 -15 -19 -6 -22 -27 -7 -42 4 -4 7 -3 6 2 -5 22 1 32
26 44 22 10 25 9 21 -2 -3 -8 0 -20 6 -26 14 -14 7 -21 -82 -76 -40 -25 -78
-42 -83 -38 -6 3 -8 1 -5 -4 6 -9 -125 -77 -164 -85 -8 -2 -16 -6 -19 -9 -7
-8 -176 -66 -230 -79 -25 -6 -53 -12 -63 -15 -10 -2 -26 -6 -35 -9 -105 -30
-445 -50 -574 -33 -27 3 -48 4 -48 2 0 -2 32 -23 70 -46 61 -36 69 -44 58 -58
-11 -14 -11 -14 4 -3 14 11 25 8 74 -18 31 -16 63 -35 71 -41 7 -6 13 -8 13
-5 0 4 10 1 23 -6 12 -7 24 -13 27 -13 3 0 14 -5 24 -12 19 -10 18 -11 -3 -23
-21 -11 -22 -10 -17 12 3 12 3 17 0 10 -5 -10 -10 -9 -21 5 -12 15 -14 15 -10
2 3 -9 0 -23 -6 -30 -10 -11 -9 -11 5 -1 14 11 18 9 26 -15 7 -17 11 -21 11
-10 1 20 17 23 24 4 2 -6 3 -4 2 5 -2 9 4 19 12 22 8 3 11 1 8 -4 -4 -6 3 -9
16 -7 12 1 24 -4 26 -13 4 -13 3 -13 -6 0 -6 8 -11 10 -11 5 0 -17 21 -34 35
-28 9 3 13 -2 11 -14 -2 -10 -1 -12 1 -5 7 19 23 4 17 -16 -5 -14 -4 -14 4 -2
6 8 9 17 7 20 -1 3 3 10 10 17 10 9 17 7 34 -8 12 -11 18 -25 14 -31 -4 -8
-10 -4 -16 10 -11 25 -24 29 -24 7 0 -8 4 -12 9 -9 7 5 12 -10 9 -28 0 -5 3
-8 8 -8 11 0 25 30 22 50 -1 12 0 13 7 1 6 -8 15 -10 22 -6 8 5 11 4 7 -2 -4
-6 4 -11 19 -11 38 0 54 -20 30 -38 -17 -12 -18 -16 -6 -27 8 -6 12 -8 8 -3
-8 10 14 36 25 29 4 -3 2 -12 -5 -21 -11 -15 -11 -15 4 -4 14 11 18 10 27 -5
6 -10 11 -13 11 -8 0 6 -5 16 -11 22 -17 17 -1 35 20 23 10 -5 21 -6 25 -3 3
3 6 2 6 -4 0 -6 19 -11 42 -11 22 -1 44 -4 47 -9 3 -4 19 -9 35 -10 29 -2 56
-19 56 -34 0 -5 -5 -9 -11 -9 -5 0 -8 4 -4 9 3 5 0 13 -7 17 -7 4 -10 4 -6 -1
4 -4 3 -14 -3 -22 -6 -7 -10 -13 -8 -14 31 -6 38 -5 43 7 3 8 2 22 -1 31 -6
15 -4 16 9 5 8 -7 23 -10 32 -6 18 7 22 -11 4 -22 -7 -4 -8 -3 -4 4 5 8 1 10
-9 6 -14 -6 -13 -8 5 -21 11 -8 17 -19 14 -25 -4 -7 -2 -8 5 -4 9 6 9 11 1 21
-9 11 -7 14 9 12 13 -1 19 -6 17 -14 -3 -8 1 -10 11 -6 11 4 14 2 9 -5 -5 -8
-2 -10 9 -5 13 5 14 7 3 14 -12 8 -4 13 15 10 5 -1 6 3 2 9 -5 8 -11 8 -20 0
-9 -8 -15 -8 -20 0 -3 6 -11 8 -16 5 -5 -4 -9 -2 -9 4 0 10 48 9 66 -2 6 -3
21 -5 32 -2 16 3 19 0 15 -13 -5 -14 -4 -15 8 -6 16 12 83 13 95 2 4 -4 14 -2
23 5 14 11 15 10 1 -7 -10 -13 -10 -17 -2 -12 29 18 71 15 96 -7 14 -13 26
-26 26 -31 0 -5 -7 -3 -15 4 -15 13 -35 6 -35 -13 0 -8 4 -7 9 2 8 12 12 12
24 2 23 -19 33 6 11 30 -18 21 -18 21 24 23 16 0 29 -4 29 -10 0 -12 -22 -13
-33 -1 -4 4 -12 7 -17 7 -5 0 1 -9 14 -19 19 -16 22 -22 12 -32 -7 -7 -13 -18
-13 -24 0 -5 8 2 18 17 17 25 19 26 34 12 19 -20 40 -10 31 14 -6 15 -5 16 13
2 10 -8 25 -22 32 -30 11 -13 11 -11 2 7 -6 13 -15 23 -21 23 -6 0 -7 5 -3 12
5 8 13 5 24 -10 10 -12 20 -19 23 -16 3 3 12 2 19 -2 16 -11 42 -15 33 -6 -4
4 -10 8 -13 8 -29 6 -51 18 -46 25 3 5 14 5 25 -1 10 -6 19 -8 19 -4 0 3 7 1
15 -6 9 -7 18 -10 22 -6 3 3 17 -1 30 -9 14 -9 22 -11 21 -4 -2 6 5 16 15 22
14 9 19 9 26 -1 6 -10 10 -10 21 3 15 18 16 17 -37 19 -24 2 -43 -1 -43 -6 0
-4 5 -8 11 -8 5 0 8 -4 4 -10 -10 -15 -34 0 -28 18 4 13 2 12 -11 -3 -10 -11
-15 -15 -12 -8 4 6 1 15 -5 19 -8 4 -9 3 -5 -4 4 -7 2 -12 -3 -12 -6 0 -11 6
-11 13 0 9 18 13 58 14 31 0 69 3 85 6 16 3 25 2 22 -4 -9 -13 9 -11 23 3 8 8
12 8 12 1 0 -20 -25 -34 -40 -20 -10 9 -11 9 -6 -1 4 -7 2 -21 -6 -30 -11 -15
-11 -16 3 -4 13 10 18 10 28 -1 6 -8 7 -18 3 -22 -4 -5 -1 -5 6 0 10 5 11 10
3 18 -18 18 -12 31 7 16 15 -12 16 -12 5 2 -7 9 -10 19 -6 22 9 9 23 9 22 0
-5 -32 14 -46 24 -19 4 11 1 13 -11 9 -9 -3 -14 -3 -10 2 4 4 2 15 -5 23 -10
13 -9 14 10 4 12 -7 23 -8 25 -3 2 5 18 11 36 14 22 4 30 2 26 -6 -3 -7 1 -5
8 4 11 13 16 14 25 3 10 -10 10 -13 0 -17 -7 -2 -8 -8 -4 -13 11 -11 27 15 20
33 -3 7 -1 13 5 13 15 0 22 -26 10 -38 -6 -6 -6 -12 3 -17 7 -5 10 -4 5 3 -3
6 -2 13 3 17 5 3 8 14 6 24 -2 13 2 18 13 16 9 -1 25 2 36 7 13 7 16 7 12 -1
-9 -14 7 -14 21 0 15 15 33 2 27 -19 -5 -14 -4 -14 4 -3 6 8 8 21 4 29 -4 12
0 14 16 10 12 -4 25 -2 28 4 3 5 12 7 20 4 7 -3 16 -1 20 5 3 6 12 8 20 5 7
-3 16 -1 20 5 3 5 14 7 25 4 12 -4 19 -2 19 6 0 10 3 10 11 2 6 -6 19 -9 28
-6 14 4 13 2 -1 -10 -10 -8 -18 -18 -18 -22 0 -5 10 1 23 13 13 12 27 19 30
15 10 -9 9 -25 -1 -19 -10 6 -10 -40 0 -49 4 -4 5 1 4 12 -2 10 1 24 7 31 6 8
6 16 -2 25 -6 8 -7 18 -3 23 4 4 0 3 -10 -4 -10 -8 -19 -9 -22 -3 -4 5 -2 12
4 16 5 3 10 3 10 -1 0 -3 6 -2 13 4 6 5 24 8 40 6 18 -2 25 1 21 8 -4 7 -2 8
5 4 6 -4 9 -11 7 -15 -3 -4 -1 -13 5 -21 6 -11 8 -5 5 17 -2 18 -1 32 3 31 6
0 10 1 29 7 35 12 52 17 58 15 3 -1 12 7 20 17 14 16 14 16 4 -6 -7 -14 -8
-21 -2 -17 6 3 12 1 14 -6 3 -9 6 -9 12 0 4 7 3 12 -3 12 -6 0 -8 7 -5 15 4 8
12 15 20 15 8 0 14 5 14 12 0 6 3 9 6 6 7 -8 65 16 115 48 22 13 39 21 39 18
0 -3 11 1 25 10 14 9 25 14 25 11 0 -3 10 3 22 14 11 11 25 18 30 15 4 -3 11
2 14 10 8 20 21 21 21 2 0 -7 -9 -18 -19 -25 -13 -8 -18 -8 -18 0 0 8 -4 8
-15 -1 -11 -9 -12 -17 -4 -32 6 -11 13 -17 16 -14 3 3 0 12 -7 21 -14 17 -1
21 18 5 6 -6 10 -7 7 -3 -3 3 4 13 15 20 11 8 18 19 15 24 -4 5 -1 9 4 9 6 0
11 -5 11 -12 0 -6 3 -8 6 -5 4 4 2 12 -4 20 -8 10 -6 16 11 27 12 8 25 13 30
12 4 -1 7 3 7 8 0 6 11 3 25 -6 23 -15 25 -15 19 0 -3 9 -10 13 -15 10 -5 -3
-9 0 -9 6 0 7 9 14 20 17 11 3 20 10 21 17 0 6 7 -2 14 -19 13 -28 14 -29 15
-6 0 13 3 22 6 19 3 -4 15 3 26 14 11 11 23 16 27 12 3 -5 13 -10 21 -12 11
-2 10 2 -3 12 -11 8 -25 12 -33 9 -18 -7 -18 4 0 23 11 11 16 11 19 1 4 -8 6
-7 6 3 1 8 26 32 56 54 29 21 56 45 59 53 3 8 10 12 15 8 6 -3 15 4 21 15 6
11 17 20 25 20 8 0 14 6 13 13 -2 7 6 11 20 9 14 -2 30 4 39 15 14 17 14 17 8
-2 -5 -16 -4 -17 6 -8 10 10 9 17 -7 35 -10 13 -15 20 -11 16 5 -3 18 3 29 14
11 11 26 17 34 14 7 -3 17 2 22 10 5 9 13 15 18 14 5 -1 9 3 11 9 1 7 0 8 -4
1 -2 -5 -9 -8 -14 -4 -5 3 -12 -1 -15 -10 -3 -8 -12 -12 -21 -9 -11 4 -9 10
11 23 15 9 23 20 19 25 -5 4 -2 5 5 1 6 -4 12 -2 12 4 0 7 5 6 14 -2 8 -7 12
-16 10 -19 -2 -3 3 -6 11 -6 10 0 9 7 -6 26 l-21 26 35 32 c19 17 32 35 29 40
-4 4 3 -1 15 -11 13 -10 20 -22 18 -27 -3 -4 -1 -10 4 -13 13 -9 8 19 -8 38
-13 15 -10 25 16 56 7 8 18 23 25 32 16 21 64 29 60 10 -1 -8 2 -11 8 -7 8 5
8 11 1 19 -6 7 -7 16 -3 21 4 4 -3 2 -15 -4 -15 -8 -23 -8 -23 -1 0 5 5 10 10
10 6 0 10 7 10 15 0 8 5 15 11 15 5 0 7 -4 4 -10 -3 -5 -4 -10 -1 -10 3 0 10
10 17 21 8 15 8 19 0 15 -6 -4 -11 -2 -11 3 0 17 21 13 37 -6 13 -15 13 -14 0
7 -12 21 -12 29 -2 43 6 9 16 13 20 9 5 -4 5 1 2 10 -7 20 8 34 19 17 5 -8 3
-9 -6 -4 -9 5 -11 4 -6 -4 11 -18 27 -2 17 17 -10 18 11 46 25 34 4 -4 4 1 1
10 -3 10 -1 20 5 24 7 5 8 2 3 -6 -5 -8 -4 -11 3 -6 6 4 9 13 6 20 -3 7 2 19
10 26 9 7 13 17 9 23 -4 6 0 8 11 4 9 -4 14 -3 11 2 -7 12 15 61 27 61 5 0 6
-6 2 -12 -4 -7 -3 -9 1 -5 13 11 15 38 3 31 -5 -3 0 12 11 34 11 22 25 44 31
47 6 4 8 11 5 16 -4 5 0 11 7 14 8 3 15 15 15 28 1 12 7 23 13 25 5 2 8 8 4
13 -3 5 0 9 6 9 6 0 8 5 4 12 -5 8 -2 9 9 5 9 -3 19 -2 22 4 4 5 1 8 -7 7 -15
-3 -12 35 3 40 5 2 6 8 3 14 -4 6 6 8 25 5 18 -3 29 -1 25 4 -3 5 -9 7 -13 5
-4 -3 -13 -1 -19 3 -16 10 -4 44 13 38 6 -3 12 1 12 9 0 7 -4 11 -9 8 -4 -3
-5 2 -2 10 3 9 10 14 14 11 4 -3 14 3 21 13 13 15 12 16 -3 4 -11 -9 -18 -10
-23 -2 -3 5 -1 10 5 10 6 0 8 5 5 10 -3 6 2 10 12 11 10 0 13 3 6 5 -8 4 -9
13 -2 34 8 21 16 28 30 25 11 -2 17 0 14 6 -4 5 -10 7 -15 4 -5 -3 -11 -1 -15
5 -3 5 -1 10 5 10 6 0 9 4 6 9 -8 12 4 42 14 36 5 -3 6 5 2 17 -4 16 -2 19 8
13 9 -6 11 -4 6 4 -5 7 0 18 10 27 18 14 18 14 0 7 -13 -4 -17 -2 -14 8 3 8
11 14 18 14 7 0 15 7 17 15 4 12 3 12 -5 1 -7 -10 -11 -10 -17 -1 -4 6 1 18
11 26 11 9 13 12 5 8 -10 -5 -11 -1 -7 14 9 28 17 64 18 80 1 7 7 11 13 8 6
-2 12 2 12 10 0 7 -4 11 -9 8 -4 -3 -8 2 -8 10 0 9 4 16 8 16 5 0 7 13 6 29
-1 16 4 41 12 56 7 14 9 23 4 20 -11 -7 -14 8 -4 18 4 4 9 37 11 74 2 37 8 70
14 71 5 2 6 9 2 15 -10 17 -3 110 10 126 9 12 9 13 0 7 -16 -9 -17 6 -2 21 8
8 8 13 0 17 -8 5 -8 13 -1 27 6 10 7 19 3 19 -14 0 -9 75 6 86 11 9 12 12 1
19 -9 6 -11 4 -5 -5 5 -8 4 -11 -2 -7 -6 4 -8 17 -6 30 4 19 10 23 28 20 12
-3 26 1 30 7 5 9 1 10 -14 5 -12 -4 -21 -2 -21 4 0 6 7 11 16 11 9 0 12 5 8
13 -6 9 -4 9 8 -1 8 -7 23 -10 32 -6 18 7 21 20 6 29 -6 4 1 16 17 28 15 12
31 26 35 31 4 6 10 7 14 3 4 -4 2 -13 -4 -19 -7 -7 -12 -19 -11 -28 0 -9 4 -6
9 8 5 12 14 22 20 22 7 0 8 6 1 19 -8 15 -7 20 5 25 9 4 23 1 30 -5 8 -6 14
-8 14 -4 0 4 -8 14 -17 21 -16 12 -15 13 12 8 21 -3 26 -2 15 5 -16 11 -7 25
65 96 22 22 39 43 38 47 -2 5 4 8 13 8 8 0 12 5 9 10 -3 6 -1 10 4 10 6 0 11
7 11 15 0 18 16 20 24 3 3 -7 3 -3 0 10 -3 12 -1 22 5 22 6 0 11 6 11 14 0 8
3 16 8 18 8 4 55 68 48 68 -2 0 -34 -11 -71 -25 -38 -15 -74 -24 -82 -21 -8 3
-12 2 -9 -2 7 -12 -110 -46 -125 -36 -7 4 -9 3 -6 -3 9 -14 -63 -25 -79 -13
-6 6 -19 7 -28 4 -9 -4 -16 -3 -15 2 4 22 -2 35 -13 28 -7 -4 -8 -3 -4 5 4 6
11 9 16 6 5 -3 15 4 23 16 9 13 17 16 22 10 10 -17 21 -13 33 14 8 17 17 23
29 19 15 -5 16 -4 3 5 -12 9 -20 5 -37 -17 -13 -15 -23 -21 -23 -14 0 6 8 20
18 30 9 9 25 29 35 42 10 14 15 19 12 13 -3 -7 -2 -13 4 -13 5 0 12 6 14 13 4
9 8 8 17 -3 10 -13 11 -13 7 0 -2 8 3 21 12 28 13 11 12 11 -7 2 -13 -7 -26
-9 -29 -6 -3 3 2 8 11 12 9 3 16 12 16 20 0 7 6 17 13 21 15 10 102 186 111
226 l7 28 -38 -24 c-108 -66 -366 -169 -486 -192 -17 -4 -45 -9 -61 -12 -21
-4 -34 0 -51 18 -12 13 -32 32 -44 42 -12 10 -19 23 -15 29 4 7 3 8 -4 4 -6
-4 -33 9 -59 28 -97 70 -262 139 -383 161 -54 10 -271 13 -310 5z m1158 -542
c-2 -8 6 -12 20 -11 12 2 22 -2 22 -7 0 -14 -44 -12 -58 2 -16 16 -15 28 3 28
8 0 14 -6 13 -12z m-18 -29 c0 -5 -13 -7 -30 -5 -16 2 -31 -2 -34 -8 -3 -8 -5
-7 -5 1 -2 20 41 44 56 31 7 -6 13 -14 13 -19z m55 -329 c-3 -5 -10 -10 -16
-10 -5 0 -9 5 -9 10 0 6 7 10 16 10 8 0 12 -4 9 -10z m-3990 -220 c-3 -5 -11
-10 -16 -10 -6 0 -7 5 -4 10 3 6 11 10 16 10 6 0 7 -4 4 -10z m702 -1770 c-2
-24 -10 -25 -26 -6 -9 11 -9 15 1 19 23 9 27 7 25 -13z m93 -30 c0 -5 -2 -10
-4 -10 -3 0 -8 5 -11 10 -3 6 -1 10 4 10 6 0 11 -4 11 -10z m227 -64 c-7 -18
22 -14 34 5 7 11 9 11 9 0 0 -11 3 -11 18 0 9 7 6 1 -7 -13 -13 -15 -29 -24
-37 -21 -8 3 -14 2 -13 -3 3 -21 -2 -26 -15 -14 -12 9 -13 17 -4 36 12 25 24
34 15 10z m2013 -121 c-7 -8 -17 -15 -22 -15 -6 0 -5 7 2 15 7 8 17 15 22 15
6 0 5 -7 -2 -15z m-295 -241 c-23 -17 -32 -10 -15 11 7 8 17 12 23 8 6 -4 3
-11 -8 -19z m-2594 -287 c-10 -9 -11 -8 -5 6 3 10 9 15 12 12 3 -3 0 -11 -7
-18z m40 0 c-1 -12 -15 -9 -19 4 -3 6 1 10 8 8 6 -3 11 -8 11 -12z m199 -67
c0 -5 -4 -10 -10 -10 -5 0 -10 5 -10 10 0 6 5 10 10 10 6 0 10 -4 10 -10z
m827 -115 c-7 -8 -16 -10 -21 -4 -6 5 -15 4 -23 -2 -9 -8 -13 -8 -13 -1 0 12
11 16 44 18 20 2 22 -1 13 -11z m40 0 c0 -8 -4 -12 -9 -9 -5 3 -6 10 -3 15 9
13 12 11 12 -6z m-107 -5 c0 -5 -5 -10 -11 -10 -8 0 -8 -5 1 -15 15 -18 4 -20
-14 -2 -7 7 -11 18 -8 25 4 14 32 16 32 2z"/>
<path d="M4520 3860 c-12 -7 -10 -9 7 -7 12 0 19 5 17 9 -6 10 -6 10 -24 -2z"/>
<path d="M4815 4200 c-3 -5 -1 -10 4 -10 6 0 11 5 11 10 0 6 -2 10 -4 10 -3 0
-8 -4 -11 -10z"/>
<path d="M4790 4131 c0 -6 4 -12 8 -15 5 -3 9 1 9 9 0 8 -4 15 -9 15 -4 0 -8
-4 -8 -9z"/>
<path d="M4775 4099 c-4 -6 -5 -12 -2 -15 2 -3 7 2 10 11 7 17 1 20 -8 4z"/>
<path d="M4793 4075 c0 -8 4 -12 9 -9 5 3 6 10 3 15 -9 13 -12 11 -12 -6z"/>
<path d="M4760 4040 c-9 -6 -10 -10 -3 -10 6 0 15 5 18 10 8 12 4 12 -15 0z"/>
<path d="M4685 4000 c3 -5 8 -10 11 -10 2 0 4 5 4 10 0 6 -5 10 -11 10 -5 0
-7 -4 -4 -10z"/>
<path d="M4710 4002 c0 -5 7 -9 15 -9 8 0 12 4 9 9 -3 4 -9 8 -15 8 -5 0 -9
-4 -9 -8z"/>
<path d="M4600 3915 c-11 -13 -10 -14 4 -9 9 3 16 10 16 15 0 13 -6 11 -20 -6z"/>
<path d="M4635 3880 c3 -5 8 -10 11 -10 2 0 4 5 4 10 0 6 -5 10 -11 10 -5 0
-7 -4 -4 -10z"/>
<path d="M4960 3820 c-9 -6 -10 -10 -3 -10 6 0 15 5 18 10 8 12 4 12 -15 0z"/>
<path d="M470 3799 c0 -5 5 -7 10 -4 6 3 10 8 10 11 0 2 -4 4 -10 4 -5 0 -10
-5 -10 -11z"/>
<path d="M4876 3773 c-6 -14 -5 -15 5 -6 7 7 10 15 7 18 -3 3 -9 -2 -12 -12z"/>
<path d="M4930 3781 c0 -6 4 -13 10 -16 6 -3 7 1 4 9 -7 18 -14 21 -14 7z"/>
<path d="M4820 3731 l-25 -28 26 1 c15 0 25 4 23 7 -5 9 21 30 28 23 3 -3 9
-1 12 4 7 12 -13 10 -33 -2 -11 -7 -13 -5 -8 7 8 22 6 21 -23 -12z"/>
<path d="M4776 3675 c-3 -9 1 -18 9 -21 8 -4 12 -11 8 -17 -3 -6 -1 -7 6 -3 6
4 9 11 6 16 -3 4 1 11 7 14 7 3 2 3 -12 -1 -22 -5 -23 -4 -11 11 7 9 9 16 3
16 -5 0 -13 -7 -16 -15z"/>
<path d="M4715 3600 c3 -5 8 -10 11 -10 2 0 4 5 4 10 0 6 -5 10 -11 10 -5 0
-7 -4 -4 -10z"/>
<path d="M496 3558 c3 -5 10 -6 15 -3 13 9 11 12 -6 12 -8 0 -12 -4 -9 -9z"/>
<path d="M4640 3555 c-7 -9 -8 -15 -2 -15 5 0 12 7 16 15 3 8 4 15 2 15 -2 0
-9 -7 -16 -15z"/>
<path d="M519 3528 c-6 -21 -5 -38 1 -38 5 0 8 9 7 20 -1 17 -5 26 -8 18z"/>
<path d="M4634 3499 c-3 -6 -1 -16 6 -22 10 -9 11 -9 5 2 -4 8 -2 17 6 22 9 6
10 9 2 9 -6 0 -15 -5 -19 -11z"/>
<path d="M4606 3477 c3 -10 9 -15 12 -12 3 3 0 11 -7 18 -10 9 -11 8 -5 -6z"/>
<path d="M4579 3433 c-13 -16 -12 -17 4 -4 9 7 17 15 17 17 0 8 -8 3 -21 -13z"/>
<path d="M529 3403 c-13 -16 -12 -17 4 -4 9 7 17 15 17 17 0 8 -8 3 -21 -13z"/>
<path d="M4570 3386 c0 -2 7 -7 16 -10 8 -3 12 -2 9 4 -6 10 -25 14 -25 6z"/>
<path d="M4556 3322 c-3 -5 1 -9 9 -9 8 0 12 4 9 9 -3 4 -7 8 -9 8 -2 0 -6 -4
-9 -8z"/>
<path d="M618 3243 c5 -21 7 -23 10 -9 2 10 0 22 -6 28 -6 6 -7 0 -4 -19z"/>
<path d="M4533 3201 c0 -11 5 -18 9 -15 4 3 5 11 1 19 -7 21 -12 19 -10 -4z"/>
<path d="M654 3198 c-4 -6 -3 -9 2 -6 5 3 17 -5 27 -17 16 -23 16 -24 0 -34
-10 -6 -13 -10 -8 -11 6 0 17 4 25 10 12 8 12 11 -3 28 -9 10 -17 24 -17 30 0
15 -17 15 -26 0z"/>
<path d="M655 3160 c3 -5 8 -10 11 -10 2 0 4 5 4 10 0 6 -5 10 -11 10 -5 0 -7
-4 -4 -10z"/>
<path d="M745 3099 c-8 -12 0 -22 20 -25 8 -1 13 2 9 7 -3 5 -10 6 -16 3 -7
-5 -9 -1 -5 9 7 19 2 23 -8 6z"/>
<path d="M748 3053 c6 -2 18 -2 25 0 6 3 1 5 -13 5 -14 0 -19 -2 -12 -5z"/>
<path d="M785 3040 c-3 -6 1 -7 9 -4 18 7 21 14 7 14 -6 0 -13 -4 -16 -10z"/>
<path d="M808 3026 c-22 -16 -23 -23 -3 -23 8 0 13 3 10 5 -3 3 0 11 6 19 14
16 9 16 -13 -1z"/>
<path d="M4490 2856 c0 -2 8 -10 18 -17 15 -13 16 -12 3 4 -13 16 -21 21 -21
13z"/>
<path d="M495 2820 c3 -5 8 -10 11 -10 2 0 4 5 4 10 0 6 -5 10 -11 10 -5 0 -7
-4 -4 -10z"/>
<path d="M4506 2798 c3 -5 10 -6 15 -3 13 9 11 12 -6 12 -8 0 -12 -4 -9 -9z"/>
<path d="M550 2700 c0 -5 5 -10 11 -10 5 0 7 5 4 10 -3 6 -8 10 -11 10 -2 0
-4 -4 -4 -10z"/>
<path d="M4468 2703 c7 -3 16 -2 19 1 4 3 -2 6 -13 5 -11 0 -14 -3 -6 -6z"/>
<path d="M594 2566 c1 -8 5 -18 8 -22 4 -3 5 1 4 10 -1 8 -5 18 -8 22 -4 3 -5
-1 -4 -10z"/>
<path d="M628 2543 c7 -3 16 -2 19 1 4 3 -2 6 -13 5 -11 0 -14 -3 -6 -6z"/>
<path d="M4430 2540 c0 -5 5 -10 11 -10 5 0 7 5 4 10 -3 6 -8 10 -11 10 -2 0
-4 -4 -4 -10z"/>
<path d="M660 2446 c0 -2 8 -10 18 -17 15 -13 16 -12 3 4 -13 16 -21 21 -21
13z"/>
<path d="M676 2401 c-3 -4 6 -7 19 -7 14 0 22 2 19 5 -8 8 -34 10 -38 2z"/>
<path d="M745 2400 c3 -5 1 -10 -4 -10 -6 0 -11 -5 -11 -11 0 -8 5 -8 15 1 17
14 20 30 4 30 -5 0 -7 -4 -4 -10z"/>
<path d="M763 2375 c-10 -10 -9 -14 3 -19 9 -3 12 -1 9 4 -3 6 -2 10 4 10 5 0
12 -6 14 -12 4 -8 6 -9 6 -2 2 21 -23 33 -36 19z"/>
<path d="M781 2324 c0 -11 3 -14 6 -6 3 7 2 16 -1 19 -3 4 -6 -2 -5 -13z"/>
<path d="M745 2280 c-3 -6 1 -7 9 -4 18 7 21 14 7 14 -6 0 -13 -4 -16 -10z"/>
<path d="M4313 2253 c-17 -6 -17 -20 0 -20 8 0 14 6 14 14 0 7 -1 13 -1 12 -1
0 -7 -3 -13 -6z"/>
<path d="M851 2227 c2 -1 13 -9 24 -17 19 -14 19 -14 6 3 -7 9 -18 17 -24 17
-6 0 -8 -1 -6 -3z"/>
<path d="M1010 2201 c0 -6 5 -11 11 -11 5 0 7 -6 3 -12 -5 -9 -2 -9 9 1 22 17
22 8 0 -27 -9 -15 -13 -24 -8 -20 4 4 14 0 22 -10 13 -15 13 -15 4 5 -15 29
-14 30 10 28 12 -1 27 -12 35 -26 7 -13 13 -19 14 -12 0 6 9 10 20 8 11 -2 20
1 20 7 0 7 5 6 14 -1 10 -8 16 -9 21 -1 4 6 3 10 -2 9 -4 -1 -11 0 -15 1 -5 1
-11 3 -15 4 -5 1 -19 7 -33 14 -22 12 -23 11 -7 -1 21 -17 22 -24 2 -24 -8 0
-17 9 -21 19 -4 13 -12 17 -24 13 -13 -4 -17 -1 -16 12 0 10 -3 18 -9 18 -5 0
-16 4 -22 8 -8 5 -13 4 -13 -2z"/>
<path d="M1002 2160 c0 -14 2 -19 5 -12 2 6 2 18 0 25 -3 6 -5 1 -5 -13z"/>
<path d="M4270 2150 c-6 -11 -8 -20 -6 -20 3 0 10 9 16 20 6 11 8 20 6 20 -3
0 -10 -9 -16 -20z"/>
<path d="M4230 2059 c0 -5 5 -7 10 -4 6 3 10 8 10 11 0 2 -4 4 -10 4 -5 0 -10
-5 -10 -11z"/>
<path d="M4196 2018 c3 -5 10 -6 15 -3 13 9 11 12 -6 12 -8 0 -12 -4 -9 -9z"/>
<path d="M4156 1951 c-3 -5 1 -11 9 -14 9 -4 12 -1 8 9 -6 16 -10 17 -17 5z"/>
<path d="M870 1920 c0 -5 5 -10 11 -10 5 0 7 5 4 10 -3 6 -8 10 -11 10 -2 0
-4 -4 -4 -10z"/>
<path d="M4148 1904 c6 -3 9 -11 5 -17 -5 -8 -2 -8 9 0 8 7 18 11 21 8 4 -3 5
-2 2 2 -3 4 -16 8 -28 9 -12 2 -16 0 -9 -2z"/>
<path d="M4120 1895 c0 -5 5 -17 10 -25 5 -8 10 -10 10 -5 0 6 -5 17 -10 25
-5 8 -10 11 -10 5z"/>
<path d="M910 1840 c0 -5 5 -10 11 -10 5 0 7 5 4 10 -3 6 -8 10 -11 10 -2 0
-4 -4 -4 -10z"/>
<path d="M4094 1815 c-4 -8 -11 -12 -17 -8 -6 3 -7 1 -3 -5 10 -16 14 -15 26
8 6 11 8 20 5 20 -3 0 -8 -7 -11 -15z"/>
<path d="M974 1784 c-18 -15 -18 -15 2 -5 21 10 34 6 34 -11 0 -5 -5 -6 -12
-2 -7 4 -8 3 -4 -4 10 -16 26 -15 26 2 0 26 -25 37 -46 20z"/>
<path d="M4060 1760 c-9 -6 -10 -10 -3 -10 6 0 15 5 18 10 8 12 4 12 -15 0z"/>
<path d="M1026 1734 c-3 -8 -10 -12 -16 -9 -16 10 -11 -1 7 -16 10 -8 14 -9
10 -2 -4 7 0 16 9 21 10 6 12 12 6 16 -5 3 -13 -1 -16 -10z"/>
<path d="M4020 1740 c-9 -6 -10 -10 -3 -10 6 0 15 5 18 10 8 12 4 12 -15 0z"/>
<path d="M4050 1700 c0 -5 5 -10 11 -10 5 0 7 5 4 10 -3 6 -8 10 -11 10 -2 0
-4 -4 -4 -10z"/>
<path d="M1047 1686 c-4 -10 -3 -15 3 -11 6 3 10 1 10 -6 0 -7 3 -10 6 -6 3 3
2 13 -4 22 -8 16 -9 16 -15 1z"/>
<path d="M1078 1692 c7 -5 10 -17 7 -28 -6 -17 -6 -18 5 -1 12 19 6 37 -13 37
-9 0 -8 -3 1 -8z"/>
<path d="M1105 1661 c-3 -5 -1 -12 5 -16 6 -4 8 -11 5 -16 -4 -5 -1 -9 4 -9
14 0 14 13 -1 28 -9 9 -9 12 0 12 6 0 16 -9 22 -20 6 -11 15 -20 20 -20 6 0 0
11 -12 25 -23 27 -33 31 -43 16z"/>
<path d="M3990 1661 c0 -6 4 -12 8 -15 5 -3 9 1 9 9 0 8 -4 15 -9 15 -4 0 -8
-4 -8 -9z"/>
<path d="M1056 1642 c-3 -5 1 -9 9 -9 8 0 12 4 9 9 -3 4 -7 8 -9 8 -2 0 -6 -4
-9 -8z"/>
<path d="M1185 1609 c6 -9 3 -10 -11 -5 -10 4 -15 3 -10 -1 4 -4 17 -8 29 -8
15 0 28 -11 40 -35 10 -21 15 -25 11 -11 -5 18 -3 22 7 16 20 -10 -32 33 -55
46 -14 9 -17 8 -11 -2z"/>
<path d="M3926 1612 c-2 -4 -1 -14 4 -22 7 -11 9 -9 7 8 -1 24 -3 26 -11 14z"/>
<path d="M3951 1604 c0 -11 3 -14 6 -6 3 7 2 16 -1 19 -3 4 -6 -2 -5 -13z"/>
<path d="M1153 1583 c4 -3 1 -13 -6 -22 -11 -14 -10 -14 5 -2 16 12 16 31 1
31 -4 0 -3 -3 0 -7z"/>
<path d="M3892 1566 c-16 -17 -19 -27 -11 -32 8 -5 9 -3 4 6 -6 10 -4 12 11 6
10 -4 15 -4 12 0 -4 4 -3 15 3 25 13 25 9 24 -19 -5z"/>
<path d="M1182 1560 c-12 -19 -11 -20 8 -8 11 7 20 16 20 20 0 15 -15 8 -28
-12z"/>
<path d="M1214 1536 c1 -8 5 -18 8 -22 4 -3 5 1 4 10 -1 8 -5 18 -8 22 -4 3
-5 -1 -4 -10z"/>
<path d="M1340 1491 c0 -6 4 -13 10 -16 6 -3 7 1 4 9 -7 18 -14 21 -14 7z"/>
<path d="M1270 1486 c0 -2 7 -7 16 -10 8 -3 12 -2 9 4 -6 10 -25 14 -25 6z"/>
<path d="M1433 1465 c0 -14 3 -28 8 -31 5 -3 6 3 2 12 -4 12 -3 15 6 10 6 -4
19 -2 27 5 13 11 14 9 9 -13 -7 -27 8 -47 21 -27 4 8 3 9 -4 5 -7 -4 -12 -1
-12 8 0 19 11 21 28 4 9 -9 9 -15 0 -25 -7 -9 0 -7 20 4 22 13 28 21 21 30 -6
6 -19 10 -29 8 -10 -2 -24 3 -31 11 -9 11 -15 12 -26 2 -12 -10 -18 -9 -28 5
-11 16 -12 15 -12 -8z m117 -27 c0 -4 -4 -8 -9 -8 -6 0 -12 4 -15 8 -3 5 1 9
9 9 8 0 15 -4 15 -9z"/>
<path d="M3810 1484 c0 -2 10 -8 21 -15 13 -6 19 -7 15 -1 -3 6 0 12 6 15 7 2
1 4 -14 4 -16 0 -28 -1 -28 -3z"/>
<path d="M1316 1458 c3 -5 10 -6 15 -3 13 9 11 12 -6 12 -8 0 -12 -4 -9 -9z"/>
<path d="M1390 1460 c0 -5 7 -7 15 -4 8 4 15 8 15 10 0 2 -7 4 -15 4 -8 0 -15
-4 -15 -10z"/>
<path d="M3790 1466 c0 -2 7 -9 15 -16 13 -11 14 -10 9 4 -5 14 -24 23 -24 12z"/>
<path d="M1413 1431 c0 -11 5 -18 9 -15 4 3 5 11 1 19 -7 21 -12 19 -10 -4z"/>
<path d="M1587 1386 c-4 -10 -1 -13 8 -9 8 3 12 9 9 14 -7 12 -11 11 -17 -5z"/>
<path d="M1495 1380 c-3 -5 -1 -10 4 -10 6 0 11 5 11 10 0 6 -2 10 -4 10 -3 0
-8 -4 -11 -10z"/>
<path d="M3786 1382 c-3 -5 1 -9 9 -9 8 0 12 4 9 9 -3 4 -7 8 -9 8 -2 0 -6 -4
-9 -8z"/>
<path d="M3755 1369 c-4 -6 -5 -12 -2 -15 2 -3 7 2 10 11 7 17 1 20 -8 4z"/>
<path d="M3700 1355 c-7 -9 -10 -18 -7 -21 3 -3 10 4 17 15 13 25 8 27 -10 6z"/>
<path d="M3625 1269 c-11 -16 -1 -19 13 -3 7 8 8 14 3 14 -5 0 -13 -5 -16 -11z"/>
<path d="M3666 1258 c3 -5 10 -6 15 -3 13 9 11 12 -6 12 -8 0 -12 -4 -9 -9z"/>
<path d="M3578 1243 c-25 -30 -29 -41 -17 -49 7 -4 9 -3 6 3 -3 5 1 20 9 32
16 22 17 22 36 4 20 -18 21 -18 7 5 -17 27 -21 27 -41 5z"/>
<path d="M3527 1196 c-4 -9 -11 -14 -17 -11 -5 3 -10 1 -10 -5 0 -6 -8 -13
-17 -17 -28 -10 -53 -35 -52 -52 0 -10 4 -8 9 7 5 12 17 25 26 29 19 7 36 -15
28 -37 -4 -11 -2 -12 6 -4 9 9 9 17 1 33 -9 16 -8 22 6 30 10 5 21 9 26 10 8
1 10 7 5 23 -3 7 -7 5 -11 -6z"/>
<path d="M3580 1199 c0 -5 5 -7 10 -4 6 3 10 8 10 11 0 2 -4 4 -10 4 -5 0 -10
-5 -10 -11z"/>
<path d="M3555 1169 c-4 -6 -5 -12 -2 -15 2 -3 7 2 10 11 7 17 1 20 -8 4z"/>
<path d="M3465 1120 c3 -5 8 -10 11 -10 2 0 4 5 4 10 0 6 -5 10 -11 10 -5 0
-7 -4 -4 -10z"/>
<path d="M3394 1062 c3 -5 0 -12 -6 -15 -7 -2 -10 -7 -7 -11 3 -4 12 0 18 8 9
11 9 16 0 22 -7 4 -9 3 -5 -4z"/>
<path d="M3317 1043 c-10 -9 -9 -23 1 -23 5 0 9 7 9 15 0 17 -1 18 -10 8z"/>
<path d="M3230 995 c-11 -13 -10 -14 4 -9 9 3 16 10 16 15 0 13 -6 11 -20 -6z"/>
<path d="M3260 1000 c0 -6 7 -10 15 -10 8 0 15 2 15 4 0 2 -7 6 -15 10 -8 3
-15 1 -15 -4z"/>
<path d="M3326 998 c3 -5 10 -6 15 -3 13 9 11 12 -6 12 -8 0 -12 -4 -9 -9z"/>
<path d="M3244 972 c-6 -4 -14 -16 -17 -27 -7 -20 -7 -20 8 -1 14 18 20 15 16
-7 -1 -5 3 -6 9 -2 8 5 8 11 1 19 -6 7 -8 16 -4 19 9 9 1 9 -13 -1z"/>
<path d="M3195 931 c-3 -5 -2 -12 3 -15 5 -3 9 1 9 9 0 17 -3 19 -12 6z"/>
<path d="M495 910 c-4 -6 1 -7 11 -3 13 5 15 3 9 -7 -5 -9 -4 -11 4 -6 6 4 9
12 6 17 -8 12 -22 12 -30 -1z"/>
<path d="M3083 908 c-5 -7 -10 -24 -11 -37 -1 -28 7 -23 13 8 2 11 7 26 10 31
9 14 -1 12 -12 -2z"/>
<path d="M3105 899 c-4 -6 -5 -12 -2 -15 2 -3 7 2 10 11 7 17 1 20 -8 4z"/>
<path d="M3001 868 c-25 -16 -53 -32 -64 -34 -11 -2 -24 -9 -27 -15 -4 -6 -10
-10 -14 -10 -20 3 -24 -2 -22 -24 1 -14 6 -28 11 -33 4 -4 5 -2 1 5 -4 7 7 26
24 45 27 28 30 30 25 11 -4 -14 -2 -23 4 -23 6 0 10 3 10 8 -3 20 2 32 16 32
8 0 15 5 15 11 0 5 5 7 12 3 6 -4 8 -3 4 4 -4 7 5 9 27 8 26 -2 33 1 34 15 3
30 -10 29 -56 -3z m39 2 c-24 -15 -36 -11 -14 4 10 8 21 12 24 10 2 -3 -2 -9
-10 -14z"/>
<path d="M466 882 c-2 -4 4 -8 14 -8 10 0 16 4 14 8 -3 4 -9 8 -14 8 -5 0 -11
-4 -14 -8z"/>
<path d="M552 865 c17 -19 24 -22 35 -13 11 9 13 6 9 -15 -3 -15 0 -27 5 -27
5 0 9 3 10 8 0 4 2 17 3 29 2 13 0 21 -2 18 -3 -3 -14 2 -24 12 -10 9 -18 11
-18 5 0 -6 5 -12 12 -14 9 -3 9 -6 1 -11 -7 -5 -17 1 -23 13 -6 11 -15 20 -20
20 -6 0 0 -11 12 -25z"/>
<path d="M3090 856 c0 -2 8 -10 18 -17 15 -13 16 -12 3 4 -13 16 -21 21 -21
13z"/>
<path d="M536 822 c-3 -5 1 -9 9 -9 8 0 12 4 9 9 -3 4 -7 8 -9 8 -2 0 -6 -4
-9 -8z"/>
<path d="M2993 808 c1 -15 6 -23 11 -18 4 4 4 16 -2 26 -9 16 -10 14 -9 -8z"/>
<path d="M717 793 c-4 -3 -7 -11 -7 -17 0 -6 5 -5 12 2 6 6 9 14 7 17 -3 3 -9
2 -12 -2z"/>
<path d="M2806 783 c-4 -5 -13 -8 -19 -8 -7 0 -12 -6 -12 -14 0 -8 -6 -16 -13
-19 -8 -2 -10 3 -6 15 5 15 4 15 -5 3 -17 -24 -13 -29 20 -28 20 1 26 4 17 9
-12 8 -4 13 15 10 5 -1 5 4 1 10 -5 9 -2 10 9 6 11 -4 14 -2 10 9 -6 16 -7 17
-17 7z"/>
<path d="M687 759 c7 -7 15 -10 18 -7 3 3 -2 9 -12 12 -14 6 -15 5 -6 -5z"/>
<path d="M2906 758 c3 -5 10 -6 15 -3 13 9 11 12 -6 12 -8 0 -12 -4 -9 -9z"/>
<path d="M2831 751 c-19 -12 -22 -38 -5 -38 10 0 11 4 4 12 -12 15 15 29 32
18 7 -3 8 -1 4 5 -9 14 -16 15 -35 3z"/>
<path d="M748 743 c7 -3 16 -2 19 1 4 3 -2 6 -13 5 -11 0 -14 -3 -6 -6z"/>
<path d="M887 720 c-11 -13 -10 -13 7 0 18 14 19 13 12 -5 -16 -40 -17 -49 -4
-27 8 12 17 20 20 16 4 -3 17 1 30 10 12 9 17 16 11 16 -7 0 -15 -4 -18 -10
-3 -5 -11 -10 -17 -10 -7 0 -7 4 0 13 8 10 6 13 -9 13 -11 0 -25 -7 -32 -16z"/>
<path d="M2662 714 c6 -13 18 -24 27 -24 14 1 13 2 -1 11 -10 5 -18 15 -18 21
0 9 3 9 12 0 15 -15 28 -16 28 -2 0 6 -3 9 -7 9 -5 -1 -10 0 -13 1 -3 1 -13 3
-22 5 -14 3 -15 -1 -6 -21z"/>
<path d="M766 718 c3 -5 10 -6 15 -3 13 9 11 12 -6 12 -8 0 -12 -4 -9 -9z"/>
<path d="M2750 710 c-9 -6 -10 -10 -3 -10 6 0 15 5 18 10 8 12 4 12 -15 0z"/>
<path d="M1027 699 c7 -7 15 -10 18 -7 3 3 -2 9 -12 12 -14 6 -15 5 -6 -5z"/>
<path d="M2534 685 c3 -8 -2 -19 -10 -25 -16 -14 -19 -30 -4 -30 6 0 9 3 9 8
-3 19 3 22 22 11 17 -9 20 -8 14 2 -6 9 -3 11 9 6 10 -4 15 -3 11 4 -4 5 -16
7 -28 4 l-22 -6 22 18 23 18 -26 1 c-17 2 -24 -2 -20 -11z"/>
<path d="M2713 685 c0 -8 4 -12 9 -9 5 3 6 10 3 15 -9 13 -12 11 -12 -6z"/>
<path d="M1060 680 c0 -5 7 -10 15 -10 8 0 15 -3 15 -7 0 -5 10 -19 21 -33 15
-19 18 -20 10 -4 -8 16 -6 23 10 32 20 13 26 3 9 -14 -6 -6 -2 -10 13 -11 12
0 16 1 9 4 -10 4 -8 9 5 19 10 8 14 14 8 13 -5 -1 -12 0 -15 1 -18 7 -39 7
-35 0 3 -4 -2 -11 -11 -14 -12 -5 -14 -1 -10 17 3 12 3 16 0 10 -4 -9 -11 -10
-25 -3 -13 7 -19 7 -19 0z"/>
<path d="M2485 680 c-3 -5 -3 -10 2 -10 4 0 0 -5 -9 -11 -12 -7 -24 -6 -39 1
-11 7 -23 9 -27 6 -3 -3 1 -6 9 -6 12 0 11 -2 -1 -10 -13 -9 -13 -12 2 -20 10
-6 15 -18 12 -28 -5 -14 -4 -14 4 -2 8 10 8 18 0 27 -6 8 -8 17 -4 20 4 4 10
3 14 -2 9 -13 35 -18 27 -5 -3 5 0 10 8 10 8 0 20 7 27 15 11 13 10 14 -5 9
-13 -5 -16 -4 -11 4 4 7 5 12 2 12 -3 0 -8 -4 -11 -10z"/>
<path d="M995 660 c-3 -5 -1 -10 4 -10 6 0 11 5 11 10 0 6 -2 10 -4 10 -3 0
-8 -4 -11 -10z"/>
<path d="M1186 654 c-8 -22 1 -31 16 -16 9 9 9 15 1 23 -7 7 -12 5 -17 -7z"/>
<path d="M1050 651 c0 -8 -7 -11 -17 -6 -15 5 -16 4 -5 -6 9 -10 15 -10 24 -1
6 6 9 15 5 19 -4 3 -7 1 -7 -6z"/>
<path d="M2366 651 c-8 -12 4 -41 16 -41 6 0 5 6 -2 15 -6 8 -9 19 -5 25 3 5
4 10 1 10 -3 0 -7 -4 -10 -9z"/>
<path d="M2299 648 c0 -2 -2 -17 -3 -33 -2 -24 2 -31 17 -31 16 0 17 2 3 12
-14 10 -15 13 -1 24 12 10 15 10 15 -1 0 -11 2 -11 9 1 12 18 2 35 -12 21 -14
-14 -30 -14 -22 -1 3 6 4 10 1 10 -3 0 -6 -1 -7 -2z"/>
<path d="M1392 605 c-12 -14 -17 -25 -12 -25 6 0 13 7 16 15 4 8 9 13 13 10 4
-2 8 2 8 10 0 19 0 19 -25 -10z"/>
<path d="M2176 621 c-4 -6 -12 -9 -17 -6 -5 4 -9 1 -9 -5 0 -7 8 -9 20 -5 13
4 20 2 20 -6 0 -7 3 -10 6 -6 3 3 2 13 -4 23 -6 11 -11 13 -16 5z"/>
<path d="M1170 614 c0 -2 9 -8 20 -14 11 -6 20 -7 20 -2 0 6 -9 12 -20 15 -11
3 -20 3 -20 1z"/>
<path d="M1455 612 c-10 -10 -4 -22 16 -33 12 -6 19 -7 15 -1 -3 5 1 12 9 16
8 3 18 -2 23 -11 8 -13 10 -13 16 3 9 23 -10 42 -26 26 -14 -14 -32 -16 -24
-4 5 9 -21 12 -29 4z m20 -12 c3 -5 1 -10 -4 -10 -6 0 -11 5 -11 10 0 6 2 10
4 10 3 0 8 -4 11 -10z m55 0 c0 -5 -2 -10 -4 -10 -3 0 -8 5 -11 10 -3 6 -1 10
4 10 6 0 11 -4 11 -10z"/>
<path d="M2350 605 c0 -8 4 -15 10 -15 5 0 7 7 4 15 -4 8 -8 15 -10 15 -2 0
-4 -7 -4 -15z"/>
<path d="M1581 603 c-1 -6 -8 -13 -16 -15 -13 -2 -12 -5 4 -15 16 -10 19 -10
15 0 -3 8 2 14 11 14 9 0 14 -6 11 -13 -3 -8 0 -16 7 -20 7 -4 9 -3 4 1 -4 5
1 17 10 27 16 18 16 18 -2 12 -14 -6 -16 -4 -10 7 7 12 6 12 -7 1 -13 -10 -17
-10 -21 0 -4 9 -6 9 -6 1z"/>
<path d="M2211 594 c0 -11 3 -14 6 -6 3 7 2 16 -1 19 -3 4 -6 -2 -5 -13z"/>
<path d="M1430 591 c0 -6 4 -13 10 -16 6 -3 7 1 4 9 -7 18 -14 21 -14 7z"/>
<path d="M1320 586 c0 -2 7 -7 16 -10 8 -3 12 -2 9 4 -6 10 -25 14 -25 6z"/>
<path d="M2174 582 c3 -5 0 -13 -6 -15 -9 -4 -10 -6 -1 -6 17 -1 25 16 12 25
-7 4 -9 3 -5 -4z"/>
<path d="M1394 563 c3 -4 18 -8 32 -9 14 -2 24 0 20 3 -3 3 -17 7 -32 9 -14 1
-23 0 -20 -3z"/>
<path d="M1550 563 c5 -2 8 -9 5 -13 -3 -5 -1 -11 4 -14 5 -4 8 2 7 11 -2 9
-8 18 -15 19 -6 1 -7 0 -1 -3z"/>
<path d="M1980 562 c0 -5 7 -9 15 -9 8 0 12 4 9 9 -3 4 -9 8 -15 8 -5 0 -9 -4
-9 -8z"/>
<path d="M1720 540 c-9 -6 -10 -10 -3 -10 6 0 15 5 18 10 8 12 4 12 -15 0z"/>
<path d="M1780 540 c-9 -6 -10 -10 -3 -10 6 0 15 5 18 10 8 12 4 12 -15 0z"/>
<path d="M2185 540 c-3 -6 1 -7 9 -4 18 7 21 14 7 14 -6 0 -13 -4 -16 -10z"/>
<path d="M1616 527 c3 -10 9 -15 12 -12 3 3 0 11 -7 18 -10 9 -11 8 -5 -6z"/>
<path d="M1470 526 c0 -2 7 -7 16 -10 8 -3 12 -2 9 4 -6 10 -25 14 -25 6z"/>
</g>
</svg>
